<svg data-v-423bf9ae="" xmlns="http://www.w3.org/2000/svg" viewBox="0 0 2519 2230" class="iconLeft"><!----><!----><!----><g data-v-423bf9ae="" id="213daa0e-f74e-4501-861c-98ced4cae31e" fill="#000000" transform="matrix(6.1224488604322,0,0,6.1224488604322,2165.532428282268,1063.5566341619797)"><path d="M3.99 12.96C3.99 13.15 4.14 13.30 4.33 13.30C4.51 13.30 4.66 13.15 4.66 12.96L4.66 4.19L7.62 4.19C7.80 4.19 7.95 4.03 7.95 3.84C7.95 3.65 7.80 3.50 7.62 3.50L1.04 3.50C0.85 3.50 0.70 3.65 0.70 3.84C0.70 4.03 0.85 4.19 1.04 4.19L3.99 4.19L3.99 12.96ZM8.97 12.96C8.97 13.16 9.13 13.30 9.32 13.30C9.49 13.30 9.65 13.16 9.65 12.96L9.65 9.95C9.65 9.93 9.65 9.90 9.67 9.84C9.77 9.56 10.04 8.86 10.50 8.25C10.98 7.63 11.59 7.13 12.49 7.13C12.67 7.13 12.82 6.97 12.82 6.79C12.82 6.59 12.67 6.45 12.49 6.45C11.17 6.45 10.26 7.32 9.74 8.13C9.70 8.19 9.67 8.25 9.65 8.30L9.65 6.79C9.65 6.59 9.49 6.45 9.32 6.45C9.13 6.45 8.97 6.59 8.97 6.79L8.97 12.96ZM20.19 6.44C20.01 6.44 19.85 6.58 19.85 6.78L19.85 7.78C19.26 6.97 18.33 6.44 17.28 6.44C15.47 6.44 14.03 7.99 14.03 9.87C14.03 11.75 15.47 13.30 17.28 13.30C18.33 13.30 19.26 12.75 19.85 11.94L19.85 12.96C19.85 13.15 20.01 13.30 20.19 13.30C20.37 13.30 20.52 13.15 20.52 12.96L20.52 6.78C20.52 6.58 20.37 6.44 20.19 6.44ZM17.28 12.63C15.88 12.63 14.70 11.41 14.70 9.87C14.70 8.33 15.88 7.10 17.28 7.10C18.69 7.10 19.85 8.33 19.85 9.87C19.85 11.41 18.69 12.63 17.28 12.63ZM26.47 13.30L26.47 13.30C26.47 13.30 26.47 13.30 26.47 13.30L26.47 13.30C27.29 13.30 28.06 13.02 28.63 12.57L28.63 12.57C28.80 12.45 28.83 12.24 28.70 12.08L28.70 12.08C28.59 11.96 28.39 11.91 28.24 12.03L28.24 12.03L28.24 12.03C27.75 12.40 27.13 12.63 26.47 12.63L26.47 12.63C24.88 12.63 23.62 11.40 23.62 9.86L23.62 9.86C23.62 8.34 24.88 7.10 26.47 7.10L26.47 7.10C27.13 7.10 27.75 7.32 28.24 7.71L28.24 7.71C28.39 7.83 28.59 7.78 28.70 7.66L28.70 7.66C28.83 7.50 28.80 7.29 28.66 7.20L28.66 7.20C28.06 6.72 27.29 6.44 26.47 6.44L26.47 6.44C24.51 6.44 22.95 7.95 22.95 9.86L22.95 9.86C22.95 11.79 24.51 13.30 26.47 13.30ZM31.43 12.96C31.43 13.15 31.58 13.30 31.77 13.30C31.96 13.30 32.12 13.15 32.12 12.96L32.12 11.40L33.52 10.00L36.15 13.17C36.20 13.27 36.32 13.30 36.41 13.30C36.48 13.30 36.57 13.29 36.64 13.23C36.78 13.09 36.79 12.89 36.67 12.74L34.01 9.51L36.65 6.86C36.79 6.72 36.79 6.51 36.65 6.38C36.51 6.24 36.32 6.24 36.18 6.38L32.12 10.43L32.12 3.84C32.12 3.65 31.96 3.50 31.77 3.50C31.58 3.50 31.43 3.65 31.43 3.84L31.43 12.96ZM45.65 13.08C45.71 13.22 45.85 13.30 45.98 13.30C46.02 13.30 46.05 13.29 46.10 13.29C46.27 13.22 46.35 13.01 46.28 12.84L42.88 3.75C42.84 3.63 42.70 3.54 42.55 3.54C42.41 3.54 42.27 3.63 42.21 3.75L38.81 12.84C38.74 13.01 38.84 13.22 39.00 13.29C39.05 13.29 39.10 13.30 39.13 13.30C39.27 13.30 39.40 13.22 39.45 13.08L40.32 10.77L44.79 10.77ZM42.56 4.82L44.53 10.08L40.57 10.08ZM53.21 12.96C53.21 13.16 53.37 13.30 53.55 13.30C53.73 13.30 53.89 13.16 53.89 12.96L53.89 9.24C53.89 7.71 52.64 6.45 51.10 6.45C50.25 6.45 49.48 6.85 48.97 7.45L48.97 6.79C48.97 6.61 48.83 6.45 48.65 6.45C48.45 6.45 48.31 6.61 48.31 6.79L48.31 9.13L48.31 9.24L48.31 12.96L48.31 13.05C48.31 13.05 48.33 13.06 48.33 13.08C48.33 13.09 48.33 13.10 48.34 13.12C48.38 13.20 48.47 13.27 48.57 13.30L48.65 13.30C48.75 13.30 48.85 13.26 48.90 13.17C48.94 13.13 48.96 13.08 48.97 13.02L48.97 12.96L48.97 9.24C49 8.08 49.94 7.13 51.10 7.13C52.28 7.13 53.21 8.08 53.21 9.24L53.21 12.96ZM56.91 12.96L56.91 12.96C56.91 13.15 57.06 13.30 57.25 13.30L57.25 13.30C57.44 13.30 57.60 13.15 57.60 12.96L57.60 6.78L57.60 6.78C57.60 6.58 57.44 6.44 57.25 6.44L57.25 6.44C57.06 6.44 56.91 6.58 56.91 6.78ZM56.91 4.86L56.91 4.86C56.91 5.05 57.06 5.22 57.25 5.22L57.25 5.22C57.44 5.22 57.60 5.05 57.60 4.86L57.60 4.54L57.60 4.54C57.60 4.35 57.44 4.20 57.25 4.20L57.25 4.20C57.06 4.20 56.91 4.35 56.91 4.54Z"></path></g><defs data-v-423bf9ae=""><linearGradient data-v-423bf9ae="" gradientTransform="rotate(25)" id="659fcc2e-9045-4bd8-9d4a-a454719f0cc9" x1="0%" y1="0%" x2="100%" y2="0%"><stop data-v-423bf9ae="" offset="0%" style="stop-color: rgb(0, 102, 120); stop-opacity: 1;"></stop><stop data-v-423bf9ae="" offset="100%" style="stop-color: rgb(79, 168, 255); stop-opacity: 1;"></stop></linearGradient></defs><g data-v-423bf9ae="" id="63ab3e3a-fae7-4c5e-a989-c1414ec8dedd" transform="matrix(4.977695041232639,0,0,4.977695041232639,-205.85099894434438,-159.270570910704)" stroke="none" fill="url(#659fcc2e-9045-4bd8-9d4a-a454719f0cc9)"><path d="M343.207 285.237c-.146.052-.284.117-.432.164a15.994 15.994 0 01-18.254-6.358l-30.574-3.193 23.741 13.728a16.033 16.033 0 11-8 13.859l-23.6-13.645 24.867 34.228a8.017 8.017 0 01.963 1.77 16 16 0 11-12.523 9.1 8.064 8.064 0 01-1.383-1.469l-24.86-34.221 4.91 23.02a15.985 15.985 0 011.763 31.343 136.107 136.107 0 01-13.136 35.537 124.706 124.706 0 0047 43.541l46.853 24.874 1.791-38.552a8 8 0 0110.108-7.344l37.218 10.21-9.178-52.248c-6.245-35.521-27.057-66.104-57.274-84.344zm-30.515 116.354a8 8 0 01-11.276.919 75.9 75.9 0 01-12.248-13.21 8 8 0 1112.943-9.406 59.881 59.881 0 009.662 10.423 8 8 0 01.919 11.274zm31.208 16.116a8 8 0 01-10.786 3.415l-7.94-4.122a8 8 0 117.371-14.2l7.938 4.121a8 8 0 013.417 10.786zM262.954 347.463a16.007 16.007 0 01.092-18.939l-5.58-26.163-5.718 26.815a16.033 16.033 0 11-15.652-3.32l5.684-26.656-24.865 34.225a8 8 0 01-1.384 1.468 16 16 0 11-12.522-9.1 7.936 7.936 0 01.963-1.77l24.861-34.22-23.592 13.641a15.981 15.981 0 01-28.662 9.749q-5.675.469-11.326.479a136.731 136.731 0 01-24-2.13 124.708 124.708 0 00-26.8 58.04l-9.179 52.247 37.219-10.21a8 8 0 0110.107 7.341l1.791 38.552 46.854-24.875c32.5-17.257 55.842-48.232 63.158-83.47a16.173 16.173 0 01-1.449-1.704zM148.66 378.3l-1.467 8.823a8 8 0 01-15.783-2.623l1.467-8.823a8 8 0 1115.783 2.623zm12.384-36.024a59.817 59.817 0 00-6.928 12.41 8 8 0 01-14.8-6.082 75.839 75.839 0 018.782-15.732 8 8 0 0112.945 9.4zM174.5 297.3a15.944 15.944 0 0122.753-7.722l23.745-13.73-27.283 2.852a16.032 16.032 0 11-1.684-15.912l27.1-2.829-40.224-13.07a7.978 7.978 0 01-1.819-.867 16 16 0 114.782-14.718 8.024 8.024 0 011.982.368l40.232 13.073-20.268-18.224a15.981 15.981 0 01-18.126-24.253 136.076 136.076 0 01-9.2-34.055 124.549 124.549 0 00-63.627-7.6l-52.527 7.417 21.211 32.242a8 8 0 01-3.861 11.882l-36.112 13.617 38.136 36.874c25.7 24.848 59.99 37.316 94.79 34.655zm-59.358-101.461l-8.845 1.332a8.163 8.163 0 01-1.2.09 8 8 0 01-1.182-15.912l8.845-1.332a8 8 0 012.383 15.822zm16.773-10.693a8 8 0 018.583-7.37 75.794 75.794 0 0117.675 3.492 8 8 0 11-4.945 15.216 59.911 59.911 0 00-13.943-2.755 8 8 0 01-7.37-8.583zM203.823 196.1a16 16 0 0110.707 18.534l20.39 18.333-11.134-25.056a16.034 16.034 0 1114.612-6.517l11.069 24.906V184a7.99 7.99 0 01.262-2 16 16 0 1115.476 0 7.984 7.984 0 01.262 2v42.315l11.071-24.915a15.988 15.988 0 1114.616 6.509l-11.128 25.042 20.376-18.32a15.943 15.943 0 0114.379-19.25 120.786 120.786 0 008.374-33.236 7.911 7.911 0 01.1-.884 124.473 124.473 0 00-12.146-66.736l-23.286-47.664L263.714 77a8 8 0 01-12.494 0l-24.11-30.139-23.284 47.664c-15.493 31.716-16.746 68.907-3.678 100.856a15.973 15.973 0 013.675.719zm99.5-69.989A75.816 75.816 0 01305.467 144a8 8 0 01-16 0 59.846 59.846 0 00-1.69-14.111 8 8 0 0115.547-3.778zm-25.434-37.266a8 8 0 0110.733 3.577l4 8a8 8 0 11-14.31 7.156l-4-8a8 8 0 013.577-10.733zM241.467 264a16.039 16.039 0 00.081 1.6c0 .019.007.037.009.055v.032a15.988 15.988 0 10-.091-1.691zM437.247 212.154a8 8 0 01-3.861-11.882L454.6 168.03l-52.527-7.415a124.466 124.466 0 00-63.535 7.553 136.65 136.65 0 01-9.237 34c-.016.038-.036.072-.052.109a15.98 15.98 0 01-18.134 24.244l-20.275 18.224 40.238-13.075a8 8 0 011.833-.358 16 16 0 115.57 14.257 7.974 7.974 0 01-2.458 1.318L295.8 259.956l27.809 2.9a15.993 15.993 0 0129.99 10 136.856 136.856 0 0125.812 21 124.629 124.629 0 0055.811-31.213l38.135-36.874zM402.777 265a75.806 75.806 0 01-16.351 7.564 8 8 0 11-4.944-15.216 59.855 59.855 0 0012.9-5.967 8 8 0 118.4 13.619zm27.5-24.4l-6.372 6.277a8 8 0 01-11.228-11.4l6.372-6.276a8 8 0 1111.228 11.4zM49.467 104a7.974 7.974 0 005.657-2.343l8-8A8 8 0 0051.81 82.343l-8 8A8 8 0 0049.467 104zM57.467 56a7.974 7.974 0 005.657-2.343l8-8A8 8 0 0059.81 34.343l-8 8A8 8 0 0057.467 56zM425.467 64a7.974 7.974 0 005.657-2.343l8-8a8 8 0 00-11.314-11.314l-8 8A8 8 0 00425.467 64zM369.467 88a7.974 7.974 0 005.657-2.343l8-8a8 8 0 00-11.314-11.314l-8 8A8 8 0 00369.467 88zM417.467 120a7.974 7.974 0 005.657-2.343l8-8a8 8 0 00-11.314-11.314l-8 8A8 8 0 00417.467 120zM59.81 330.343l-8 8a8 8 0 0011.314 11.314l8-8a8 8 0 00-11.314-11.314zM51.81 370.343l-8 8a8 8 0 0011.314 11.314l8-8a8 8 0 00-11.314-11.314zM251.81 458.343l-8 8a8 8 0 0011.314 11.314l8-8a8 8 0 00-11.314-11.314zM451.81 306.343l-8 8a8 8 0 0011.314 11.314l8-8a8 8 0 00-11.314-11.314zM451.81 346.343l-8 8a8 8 0 0011.314 11.314l8-8a8 8 0 00-11.314-11.314z"></path></g><!----></svg>