<svg data-v-fde0c5aa="" xmlns="http://www.w3.org/2000/svg" viewBox="0 0 300 300" class="font"><!----><defs data-v-fde0c5aa=""><!----></defs><rect data-v-fde0c5aa="" fill="transparent" x="0" y="0" width="300px" height="300px" class="logo-background-square"></rect><defs data-v-fde0c5aa=""><linearGradient data-v-fde0c5aa="" gradientTransform="rotate(25)" id="9859ce62-3d60-456e-9810-00eabeee15e6" x1="0%" y1="0%" x2="100%" y2="0%"><stop data-v-fde0c5aa="" offset="0%" stop-color="#006678" stop-opacity="1"></stop><stop data-v-fde0c5aa="" offset="100%" stop-color="#4FA8FF" stop-opacity="1"></stop></linearGradient></defs><g data-v-fde0c5aa="" id="ffdf1668-c71d-42e3-9ee9-54866f6c1f89" fill="url(#9859ce62-3d60-456e-9810-00eabeee15e6)" transform="matrix(3.8664324929624194,0,0,3.8664324929624194,37.29349730101777,117.52196669038395)"><path d="M3.99 12.96C3.99 13.15 4.14 13.30 4.33 13.30C4.51 13.30 4.66 13.15 4.66 12.96L4.66 4.19L7.62 4.19C7.80 4.19 7.95 4.03 7.95 3.84C7.95 3.65 7.80 3.50 7.62 3.50L1.04 3.50C0.85 3.50 0.70 3.65 0.70 3.84C0.70 4.03 0.85 4.19 1.04 4.19L3.99 4.19L3.99 12.96ZM8.97 12.96C8.97 13.16 9.13 13.30 9.32 13.30C9.49 13.30 9.65 13.16 9.65 12.96L9.65 9.95C9.65 9.93 9.65 9.90 9.67 9.84C9.77 9.56 10.04 8.86 10.50 8.25C10.98 7.63 11.59 7.13 12.49 7.13C12.67 7.13 12.82 6.97 12.82 6.79C12.82 6.59 12.67 6.45 12.49 6.45C11.17 6.45 10.26 7.32 9.74 8.13C9.70 8.19 9.67 8.25 9.65 8.30L9.65 6.79C9.65 6.59 9.49 6.45 9.32 6.45C9.13 6.45 8.97 6.59 8.97 6.79L8.97 12.96ZM20.19 6.44C20.01 6.44 19.85 6.58 19.85 6.78L19.85 7.78C19.26 6.97 18.33 6.44 17.28 6.44C15.47 6.44 14.03 7.99 14.03 9.87C14.03 11.75 15.47 13.30 17.28 13.30C18.33 13.30 19.26 12.75 19.85 11.94L19.85 12.96C19.85 13.15 20.01 13.30 20.19 13.30C20.37 13.30 20.52 13.15 20.52 12.96L20.52 6.78C20.52 6.58 20.37 6.44 20.19 6.44ZM17.28 12.63C15.88 12.63 14.70 11.41 14.70 9.87C14.70 8.33 15.88 7.10 17.28 7.10C18.69 7.10 19.85 8.33 19.85 9.87C19.85 11.41 18.69 12.63 17.28 12.63ZM26.47 13.30L26.47 13.30C26.47 13.30 26.47 13.30 26.47 13.30L26.47 13.30C27.29 13.30 28.06 13.02 28.63 12.57L28.63 12.57C28.80 12.45 28.83 12.24 28.70 12.08L28.70 12.08C28.59 11.96 28.39 11.91 28.24 12.03L28.24 12.03L28.24 12.03C27.75 12.40 27.13 12.63 26.47 12.63L26.47 12.63C24.88 12.63 23.62 11.40 23.62 9.86L23.62 9.86C23.62 8.34 24.88 7.10 26.47 7.10L26.47 7.10C27.13 7.10 27.75 7.32 28.24 7.71L28.24 7.71C28.39 7.83 28.59 7.78 28.70 7.66L28.70 7.66C28.83 7.50 28.80 7.29 28.66 7.20L28.66 7.20C28.06 6.72 27.29 6.44 26.47 6.44L26.47 6.44C24.51 6.44 22.95 7.95 22.95 9.86L22.95 9.86C22.95 11.79 24.51 13.30 26.47 13.30ZM31.43 12.96C31.43 13.15 31.58 13.30 31.77 13.30C31.96 13.30 32.12 13.15 32.12 12.96L32.12 11.40L33.52 10.00L36.15 13.17C36.20 13.27 36.32 13.30 36.41 13.30C36.48 13.30 36.57 13.29 36.64 13.23C36.78 13.09 36.79 12.89 36.67 12.74L34.01 9.51L36.65 6.86C36.79 6.72 36.79 6.51 36.65 6.38C36.51 6.24 36.32 6.24 36.18 6.38L32.12 10.43L32.12 3.84C32.12 3.65 31.96 3.50 31.77 3.50C31.58 3.50 31.43 3.65 31.43 3.84L31.43 12.96ZM45.65 13.08C45.71 13.22 45.85 13.30 45.98 13.30C46.02 13.30 46.05 13.29 46.10 13.29C46.27 13.22 46.35 13.01 46.28 12.84L42.88 3.75C42.84 3.63 42.70 3.54 42.55 3.54C42.41 3.54 42.27 3.63 42.21 3.75L38.81 12.84C38.74 13.01 38.84 13.22 39.00 13.29C39.05 13.29 39.10 13.30 39.13 13.30C39.27 13.30 39.40 13.22 39.45 13.08L40.32 10.77L44.79 10.77ZM42.56 4.82L44.53 10.08L40.57 10.08ZM53.21 12.96C53.21 13.16 53.37 13.30 53.55 13.30C53.73 13.30 53.89 13.16 53.89 12.96L53.89 9.24C53.89 7.71 52.64 6.45 51.10 6.45C50.25 6.45 49.48 6.85 48.97 7.45L48.97 6.79C48.97 6.61 48.83 6.45 48.65 6.45C48.45 6.45 48.31 6.61 48.31 6.79L48.31 9.13L48.31 9.24L48.31 12.96L48.31 13.05C48.31 13.05 48.33 13.06 48.33 13.08C48.33 13.09 48.33 13.10 48.34 13.12C48.38 13.20 48.47 13.27 48.57 13.30L48.65 13.30C48.75 13.30 48.85 13.26 48.90 13.17C48.94 13.13 48.96 13.08 48.97 13.02L48.97 12.96L48.97 9.24C49 8.08 49.94 7.13 51.10 7.13C52.28 7.13 53.21 8.08 53.21 9.24L53.21 12.96ZM56.91 12.96L56.91 12.96C56.91 13.15 57.06 13.30 57.25 13.30L57.25 13.30C57.44 13.30 57.60 13.15 57.60 12.96L57.60 6.78L57.60 6.78C57.60 6.58 57.44 6.44 57.25 6.44L57.25 6.44C57.06 6.44 56.91 6.58 56.91 6.78ZM56.91 4.86L56.91 4.86C56.91 5.05 57.06 5.22 57.25 5.22L57.25 5.22C57.44 5.22 57.60 5.05 57.60 4.86L57.60 4.54L57.60 4.54C57.60 4.35 57.44 4.20 57.25 4.20L57.25 4.20C57.06 4.20 56.91 4.35 56.91 4.54Z"></path></g><!----><!----></svg>